<svg width="152" height="94" viewBox="0 0 152 94" fill="none" xmlns="http://www.w3.org/2000/svg">
<rect width="3.43885" height="3.43885" rx="0.5" transform="translate(138.851 18.8333) scale(1.00423 0.995751) rotate(45)" fill="#F0CECB"/>
<rect width="7.40804" height="7.40804" rx="0.5" transform="translate(49.2913 10.2727) scale(1.00423 0.995751) rotate(45)" fill="#F0CECB"/>
<path d="M0 0.5C0 0.223858 0.223858 0 0.5 0H3.98172C4.42717 0 4.65026 0.538571 4.33528 0.853553L2.59441 2.59441L0.853553 4.33528C0.538571 4.65026 0 4.42717 0 3.98172V0.5Z" transform="translate(118 13.6665) scale(1.00423 0.995751) rotate(45)" fill="#F0CECB"/>
<path d="M0 0.5C0 0.223858 0.223858 0 0.5 0H3.98172C4.42717 0 4.65026 0.538571 4.33528 0.853553L2.59441 2.59441L0.853553 4.33528C0.538571 4.65026 0 4.42717 0 3.98172V0.5Z" transform="translate(3.68457 20.5455) scale(1.00423 0.995751) rotate(45)" fill="#F0CECB"/>
<ellipse cx="3.02172" cy="2.99621" rx="3.02172" ry="2.99621" transform="translate(14.6769 30.8182)" fill="#F0CECB"/>
<ellipse cx="3.02172" cy="2.99621" rx="3.02172" ry="2.99621" transform="translate(123.459 38.5227)" fill="#F0CECB"/>
<path d="M1.8124 1L76.9406 0.999998L76.2225 2.42424L2.71013 2.42424L1.8124 1Z" transform="translate(32.8074 32.5303)" stroke="#C4C4C4" stroke-width="2"/>
<mask id="path-8-inside-1" fill="white">
<rect width="88.0617" height="54.7879" rx="1"/>
</mask>
<rect width="88.0617" height="54.7879" rx="1" transform="translate(27.7802 29.106)" stroke="#F3D9D8" stroke-width="4" mask="url(#path-8-inside-1)"/>
<mask id="path-9-inside-2" fill="white">
<rect width="80.2915" height="47.9394" rx="1"/>
</mask>
<rect width="80.2915" height="47.9394" rx="1" transform="translate(32.0969 32.5303)" stroke="#F3D9D8" stroke-width="4" mask="url(#path-9-inside-2)"/>
<path d="M0 6.42045V6.42045C0.257923 7.18769 0.976956 7.70455 1.78638 7.70455H104.624C105.728 7.70455 106.624 6.80911 106.624 5.70454V2C106.624 0.895431 105.728 0 104.624 0H104.034" transform="translate(21.1522 84.75)" stroke="#C4C4C4" stroke-width="2"/>
<rect x="1" y="1" width="108.509" height="5.70455" rx="1" transform="translate(16.5566 83.8939)" stroke="#F3D9D8" stroke-width="2"/>
<rect width="32.8073" height="9.41667" rx="1" transform="translate(44.8943 39.3788)" fill="#DA6256"/>
<ellipse cx="3.4534" cy="3.42424" rx="3.4534" ry="3.42424" transform="translate(36.2607 40.2348)" fill="#F3D9D8"/>
<ellipse cx="3.4534" cy="3.42424" rx="3.4534" ry="3.42424" transform="translate(36.2607 66.7727)" fill="#F3D9D8"/>
<ellipse cx="3.4534" cy="3.42424" rx="3.4534" ry="3.42424" transform="translate(101.012 52.2197)" fill="#F3D9D8"/>
<rect width="32.8073" height="6.84848" rx="1" transform="translate(66.478 52.2197)" fill="#DA6256"/>
<path d="M9.45451 4.80748H6.81898C6.7985 4.80748 6.77802 4.80612 6.7577 4.80336C6.45621 4.76287 6.08736 4.67528 5.91003 4.35483C5.71535 4.00317 5.86692 3.64822 6.04249 3.23723C6.25746 2.73394 6.58229 1.9734 6.52567 0.803072C6.52547 0.799074 6.52578 0.795236 6.52567 0.791279C6.52563 0.787281 6.52508 0.783404 6.52508 0.779406C6.52508 0.349667 6.18263 -6.58779e-08 5.76167 -6.58779e-08C5.34126 -6.58779e-08 4.99917 0.348828 4.99834 0.777847C5.03261 2.06003 4.81901 2.32611 3.91751 3.23551C3.8354 3.31826 3.74659 3.40789 3.65055 3.50599C2.72743 4.44846 2.6241 5.81375 2.62316 5.82738C2.60597 6.0787 2.40123 6.27367 2.15443 6.27367H0.000273938C0.000273938 6.27367 3.91575e-05 10.7572 2.38984e-09 10.7609H1.96183C2.16676 10.7609 2.86506 10.7876 3.2451 11.1313C3.38954 11.2619 3.4792 11.3874 3.54408 11.493C3.72588 11.7887 4.08861 11.768 4.12303 11.7686C4.12303 11.7686 8.34599 11.7567 8.63393 11.735C9.03524 11.7049 9.33548 11.5487 9.5264 11.2707C9.6598 11.0763 9.69637 10.8842 9.69668 10.8824C9.87104 9.71338 10.3109 6.49209 10.2558 5.61974C10.2154 4.98113 9.60318 4.83386 9.45451 4.80748Z" transform="translate(50.0984 61.7396)" fill="#F3D9D8"/>
<path d="M2.14832 -5.36783e-08H0.313241C0.140528 -5.36783e-08 0 0.143473 0 0.319806V4.68215C0 4.85849 0.140528 5.00196 0.313241 5.00196H2.14832C2.32104 5.00196 2.46156 4.85849 2.46156 4.68215V0.319806C2.46156 0.143473 2.32104 -5.36783e-08 2.14832 -5.36783e-08Z" transform="translate(46.6974 67.8082)" fill="#F3D9D8"/>
<path d="M15.5343 6.51724C15.4586 5.32101 14.4244 4.87807 13.8882 4.81096C13.8692 4.80856 13.8501 4.8074 13.831 4.8074H11.1919C11.178 4.80532 11.1648 4.80324 11.1525 4.80116C11.18 4.7314 11.2142 4.65141 11.2446 4.58006C11.4795 4.03027 11.8725 3.11011 11.805 1.71516C11.805 1.71524 11.805 1.71508 11.805 1.71516C11.7924 0.767374 11.0337 -1.15896e-08 10.1024 -1.15896e-08C9.16335 -1.15896e-08 8.39932 0.780046 8.39932 1.73882C8.39932 1.74114 8.39963 1.74334 8.39967 1.74566C8.39971 1.74798 8.39943 1.75014 8.39951 1.75245C8.42524 2.67777 8.39415 2.70911 7.59781 3.51235C7.51445 3.59645 7.42428 3.6874 7.32674 3.78694C6.51196 4.61887 6.20362 5.68207 6.08991 6.27363H3.76739C3.57149 6.14403 3.33832 6.06843 3.08804 6.06843H1.25296C0.562071 6.06843 0 6.64228 0 7.34765V11.71C0 12.4154 0.562111 12.9892 1.25296 12.9892H3.08804C3.39913 12.9892 3.68387 12.8726 3.90314 12.6803H6.33745C6.59278 12.6864 6.8604 12.7008 6.96272 12.8089C7.01992 12.8606 7.05641 12.9168 7.10865 12.9933C7.58348 13.6881 8.29806 13.6849 8.45272 13.6873C8.45511 13.6874 8.45754 13.6873 8.45997 13.6873C8.45997 13.6873 12.7548 13.709 13.0436 13.6873C14.3868 13.5865 14.889 12.5161 14.9666 11.9848C14.9928 11.8092 15.6073 7.6713 15.5343 6.51724ZM3.40129 11.71C3.40129 11.8864 3.26076 12.0298 3.08804 12.0298H1.25296C1.08025 12.0298 0.939722 11.8864 0.939722 11.71V7.34769C0.939722 7.17136 1.08025 7.02789 1.25296 7.02789H3.08804C3.26076 7.02789 3.40129 7.17136 3.40129 7.34769V11.71ZM4.33572 7.23308H4.33788C4.33725 7.2404 4.33654 7.24224 4.33572 7.23308ZM14.0374 11.8418C14.0371 11.8436 14.0006 12.0357 13.8671 12.23C13.6762 12.5081 13.376 12.6643 12.9747 12.6944C12.6867 12.716 8.46377 12.7279 8.46377 12.7279C8.42935 12.7274 8.06662 12.7481 7.88482 12.4524C7.81994 12.3467 7.73031 12.2213 7.58583 12.0907C7.20579 11.7469 6.5075 11.7202 6.30256 11.7202H4.34073C4.34077 11.7166 4.34101 7.23304 4.34101 7.23304H6.49516C6.74196 7.23304 6.94666 7.03808 6.96389 6.78675C6.96483 6.77308 7.06816 5.40783 7.99128 4.46537C8.08733 4.36727 8.17617 4.27768 8.25824 4.19489C9.15975 3.28552 9.37334 3.01944 9.33908 1.73722C9.3399 1.3082 9.682 0.959377 10.1024 0.959377C10.5234 0.959377 10.8658 1.30904 10.8658 1.73878C10.8658 1.74278 10.8664 1.74666 10.8664 1.75066C10.8665 1.75461 10.8662 1.75845 10.8664 1.76245C10.923 2.93274 10.5982 3.69332 10.3832 4.19661C10.2077 4.6076 10.0561 4.96254 10.2508 5.31421C10.4281 5.63465 10.7969 5.72224 11.0984 5.76274C11.1188 5.76546 11.1392 5.76685 11.1597 5.76685H13.7952C13.9439 5.79324 14.5561 5.94051 14.5965 6.57908C14.6517 7.45143 14.2118 10.6728 14.0374 11.8418Z" transform="translate(45.7576 60.7803)" fill="#DA6256"/>
<line y1="-0.75" x2="5.02294" y2="-0.75" transform="matrix(-0.859408 -0.511291 0.517706 -0.855558 6.90686 66.7727)" stroke="#F3D8DB" stroke-width="1.5"/>
<line y1="-0.75" x2="3.83496" y2="-0.75" transform="matrix(0.450252 0.892901 -0.895935 0.444185 4.31677 59.9242)" stroke="#F3D8DB" stroke-width="1.5"/>
<line y1="-0.75" x2="4.61546" y2="-0.75" transform="matrix(0.374112 -0.927384 0.929555 0.368683 17.2671 61.6363)" stroke="#F3D8DB" stroke-width="1.5"/>
<line y1="-0.75" x2="3.10479" y2="-0.75" transform="matrix(0.834211 -0.551445 0.557957 0.82987 18.1304 62.4924)" stroke="#F3D8DB" stroke-width="1.5"/>
<line y1="-0.75" x2="3.09468" y2="-0.75" transform="matrix(0.557957 -0.82987 0.834211 0.551445 20.7205 67.6288)" stroke="#F3D8DB" stroke-width="1.5"/>
<path d="M0 3.42424C0 2.85354 0.41455 1.72905 1.29502 0.85606C1.7267 0.428056 2.59005 5.22491e-05 3.88507 2.61249e-05C5.25016 -1.4126e-06 6.47512 0.428056 6.9068 2.14018C7.25214 3.50987 7.05069 4.70835 6.9068 5.13638" transform="translate(12.087 59.9242)" stroke="#F3D8DB" stroke-width="1.5"/>
<path d="M0.19068 5.39236C0.0467884 5.107 -0.15466 4.27948 0.19068 3.25221C0.622355 1.96811 1.48571 0.684024 2.34906 0.255994C3.21241 -0.172036 4.93911 -0.172033 5.80246 1.11206C6.37802 1.96812 6.23413 3.25221 6.23413 3.68024C6.23413 4.1645 5.51467 5.67771 5.37078 5.82039" transform="translate(15.3497 65.2326)" stroke="#F3D8DB" stroke-width="1.5"/>
<path d="M1.29502 9.93046C0.719458 9.0744 4.69287e-09 6.96815 0 5.22212C-2.30059e-09 4.36607 -9.26274e-07 2.65394 1.7267 0.94182C3.10806 -0.427877 5.03621 -0.0569085 6.04345 0.513799C7.33847 1.36987 7.77015 2.22592 8.20182 3.51001C8.6335 4.7941 9.06517 6.50622 8.6335 7.79031C8.41509 8.44002 8.05793 9.35975 7.77015 9.93046" transform="translate(4.31677 61.1225)" stroke="#F3D8DB" stroke-width="1.5"/>
<rect x="0.75" y="0.75" width="18.357" height="2.7803" transform="translate(3.45337 70.197)" stroke="#F3D8DB" stroke-width="1.5"/>
<path fill-rule="evenodd" clip-rule="evenodd" d="M0.863373 0H0L0.863342 12.8409H4.31674L3.62607 2.56818H16.4037V0H3.4534H0.863373Z" transform="translate(5.18018 74.4772)" fill="#C4C4C4"/>
<path d="M15.8987 7.50982L16.4037 0H0L0.86335 12.8409H8.6335" transform="translate(5.18018 74.4772)" stroke="#F3D8DB" stroke-width="1.5"/>
<path d="M-0.441706 8.47026C-0.255205 8.84012 0.195808 8.98875 0.56566 8.80225C0.935511 8.61575 1.08415 8.16474 0.897646 7.79488L-0.441706 8.47026ZM2.38638 3.42424L1.67548 3.18525L2.38638 3.42424ZM2.91446 -0.532574C2.62033 -0.824223 2.14546 -0.822209 1.85381 -0.528077C1.56216 -0.233945 1.56418 0.240925 1.85831 0.532574L2.91446 -0.532574ZM0.897646 7.79488C0.828776 7.65831 0.774805 7.54386 0.756261 7.39674C0.739455 7.2634 0.747182 7.05658 0.897673 6.75813L-0.441687 6.08277C-0.722859 6.64038 -0.78709 7.14695 -0.731964 7.58432C-0.678576 8.0079 -0.516727 8.32149 -0.441706 8.47026L0.897646 7.79488ZM0.897673 6.75813C0.964527 6.62555 1.07964 6.46601 1.25649 6.25934C1.44013 6.04473 1.62775 5.84885 1.86563 5.58349C2.30452 5.09392 2.82889 4.46161 3.09729 3.66323L1.67548 3.18525C1.5122 3.67097 1.17321 4.10873 0.748732 4.58223C0.554939 4.7984 0.310873 5.0573 0.1168 5.2841C-0.0840694 5.51884 -0.292709 5.78732 -0.441687 6.08277L0.897673 6.75813ZM3.09729 3.66323C3.34161 2.93647 3.46014 2.10586 3.46014 1.3911C3.46014 1.03296 3.43047 0.680777 3.36105 0.371019C3.29753 0.0875915 3.17709 -0.272159 2.91446 -0.532574L1.85831 0.532574C1.81151 0.486174 1.85296 0.50095 1.89736 0.699056C1.93585 0.870832 1.96014 1.10719 1.96014 1.3911C1.96014 1.96043 1.86284 2.62793 1.67548 3.18525L3.09729 3.66323Z" transform="translate(134.023 52.6477)" fill="#F0CECB"/>
<path d="M1.29502 17.5492C0.86335 17.2639 0 16.1795 0 14.125C0 11.5568 1.29502 11.1288 3.02172 9.41667C4.31675 8.13257 5.1801 7.27651 5.61177 5.99242C6.04345 4.70833 5.61177 2.56818 5.1801 1.71212C4.83476 1.02727 4.17286 0.285354 3.88507 0" transform="translate(129.503 43.6591)" stroke="#F0CECB" stroke-width="1.5" stroke-linecap="round"/>
<path d="M0.504596 10.0161L0.561714 0.5H3.01586L3.05597 8.91212L0.504596 10.0161Z" transform="matrix(0.918153 0.396225 -0.401915 0.915677 144.627 54.3342)" stroke="#F0CECB"/>
<path d="M0 16.2658C3.57597 16.2658 6.47486 12.6246 6.47486 8.13291C6.47486 3.64123 3.57597 0 0 0" transform="matrix(0.997623 0.0689144 -0.0700873 0.997541 144.456 68.0568)" stroke="#F0CECB" stroke-width="1.5"/>
<path d="M1.14185 17.5492L0 0H23.3104L21.5837 26.5379H9.49685" transform="translate(121.732 63.7765)" stroke="#F0CECB" stroke-width="1.5"/>
<path d="M6.08148 0C8.00812 0 9.81331 0.722854 11.1769 2.04541C12.5404 3.36796 13.2857 5.12423 13.2802 6.99294C13.2802 8.86166 12.5294 10.6179 11.1658 11.9405L0.776314 21.9801C0.632782 22.1193 0.439565 22.1889 0.251869 22.1889C0.0641732 22.1889 -0.145474 20.7776 0.25186 20.4487L10.1169 10.9178C11.1989 9.8683 11.7952 8.47613 11.7896 6.99294C11.7896 5.50975 11.1989 4.11759 10.1169 3.06811C9.03492 2.02399 7.5996 1.44571 6.07596 1.44571C4.55231 1.44571 3.09954 2.21096 2.01753 3.26044L0.890536 4.26748C0.597951 4.55127 0.292584 4.17459 0 3.8908L0.268432 2.74149L0.98057 2.05076C2.34412 0.728208 4.15484 0 6.08148 0Z" transform="matrix(0.927907 0.372812 -0.378282 0.92569 94.3298 6.07436)" fill="#C4C4C4"/>
<path d="M25.9509 2.26524C24.4726 0.811957 22.5155 0.0176513 20.4268 0.0176513C18.338 0.0176513 16.3749 0.81784 14.8966 2.27113L14.1246 3.03013L13.3405 2.25936C11.8623 0.806073 9.8932 -3.23204e-08 7.80444 -3.23204e-08C5.72167 -3.23204e-08 3.7586 0.800189 2.28629 2.24759C0.808005 3.70088 -0.00595221 5.63074 3.2772e-05 7.68417C3.2772e-05 9.7376 0.819975 11.6616 2.29826 13.1149L13.5381 24.1645C13.6937 24.3175 13.9031 24.3999 14.1066 24.3999C14.3101 24.3999 14.5196 24.3234 14.6752 24.1704L25.9389 13.1384C27.4172 11.6851 28.2312 9.75525 28.2312 7.70182C28.2372 5.64839 27.4292 3.71853 25.9509 2.26524ZM24.8018 12.0146L14.1066 22.4877L3.43541 11.997C2.26235 10.8437 1.61598 9.31397 1.61598 7.68417C1.61598 6.05437 2.25637 4.5246 3.42942 3.37727C4.5965 2.22994 6.15259 1.59449 7.80444 1.59449C9.46228 1.59449 11.0244 2.22994 12.1974 3.38315L13.55 4.71288C13.8672 5.02472 14.3759 5.02472 14.6932 4.71288L16.0338 3.39492C17.2068 2.24171 18.7689 1.60626 20.4208 1.60626C22.0726 1.60626 23.6287 2.24171 24.8018 3.38904C25.9748 4.54225 26.6152 6.07202 26.6152 7.70182C26.6212 9.33162 25.9748 10.8614 24.8018 12.0146Z" transform="matrix(0.927907 0.372812 -0.378282 0.92569 81.7515 -1.52588e-05)" fill="#F3D9D8"/>
</svg>
