<svg width="149" height="106" viewBox="0 0 149 106" fill="none" xmlns="http://www.w3.org/2000/svg">
<rect width="3.28574" height="3.28574" rx="0.5" transform="translate(123.023 20.5949) scale(1.00394 0.99604) rotate(45)" fill="#F0CECB"/>
<rect width="7.0782" height="7.0782" rx="0.5" transform="translate(26.4663 5.72728) scale(1.00394 0.99604) rotate(45)" fill="#F0CECB"/>
<path d="M0 0.5C0 0.223858 0.223858 0 0.5 0H3.75069C4.19615 0 4.41923 0.538571 4.10425 0.853553L2.4789 2.4789L0.853553 4.10425C0.538571 4.41923 0 4.19615 0 3.75069V0.5Z" transform="translate(112.714 29.4255) scale(1.00394 0.99604) rotate(45)" fill="#F0CECB"/>
<path d="M0 0.5C0 0.223858 0.223858 0 0.5 0H3.75069C4.19615 0 4.41923 0.538571 4.10425 0.853553L2.4789 2.4789L0.853553 4.10425C0.538571 4.41923 0 4.19615 0 3.75069V0.5Z" transform="translate(55.4741) scale(1.00394 0.99604) rotate(45)" fill="#F0CECB"/>
<ellipse cx="2.88636" cy="2.86364" rx="2.88636" ry="2.86364" transform="translate(63.5 10.6364)" fill="#F0CECB"/>
<ellipse cx="2.88636" cy="2.86364" rx="2.88636" ry="2.86364" transform="translate(117.929 53.1818)" fill="#F0CECB"/>
<path d="M0 2.45455L2.47403 0V48.2727H0V2.45455Z" transform="translate(129.474 54.8182)" fill="#C4C4C4"/>
<rect x="1" y="1" width="4.5974" height="49.5454" transform="translate(126.175 51.5455)" stroke="#F3D9D8" stroke-width="2"/>
<path d="M0 1.55844L2.47403 0V30.6493H0V1.55844Z" transform="translate(136.072 72.4416)" fill="#C4C4C4"/>
<rect x="1" y="1" width="4.5974" height="30.7273" transform="translate(132.773 70.3636)" stroke="#F3D9D8" stroke-width="2"/>
<rect x="1" y="1" width="4.5974" height="30.7273" transform="translate(132.773 70.3636)" stroke="#F3D9D8" stroke-width="2"/>
<path d="M0 2.45488L1.85527 0V48.2793H0V2.45488Z" transform="matrix(0.991591 -0.129412 0.131439 0.991324 139.779 55.1104)" fill="#C4C4C4"/>
<rect x="1" y="1" width="2.94739" height="49.5524" transform="matrix(0.991591 -0.129412 0.131439 0.991324 136.896 52.1857)" stroke="#F3D9D8" stroke-width="2"/>
<rect x="1" y="1" width="2.94739" height="49.5524" transform="matrix(0.991591 -0.129412 0.131439 0.991324 136.896 52.1857)" stroke="#F3D9D8" stroke-width="2"/>
<path d="M1.00707 19.2531L1.15034 1H5.74545L5.56818 19.7481L1.00707 19.2531Z" transform="matrix(0.994165 -0.10787 0.109569 0.993979 0 56.4716)" stroke="#F3D9D8" stroke-width="2"/>
<rect width="11.5455" height="22.9091" transform="translate(1.64941 75.2727)" fill="#FCF4F4"/>
<path d="M0 2.29787L0.82444 0L1.64888 2.29787V16.7776H0V2.29787Z" transform="matrix(0.981906 -0.189368 0.192275 0.981341 6.59741 60.0395)" fill="#DA6256"/>
<path d="M16.4935 18.4091V0H0V27H9.89611" transform="translate(1.79541 76.0909)" stroke="#F3D9D8" stroke-width="2"/>
<path d="M2.47333 0H0V4.89713L2.47333 4.42246V0Z" transform="matrix(0.982098 0.188372 -0.191265 0.981538 16.2415 70.466)" fill="#DA6256"/>
<path d="M0 0.306904C0 -0.102304 5.7711 -0.102299 5.7711 0.306904C5.7711 0.600435 5.7711 5.94741 5.7711 8.94688C5.7711 10.0514 4.87567 10.9463 3.7711 10.9463H2C0.895431 10.9463 0 10.0514 0 8.94688C0 5.94741 0 0.600439 0 0.306904Z" transform="matrix(0.982098 0.188372 -0.191265 0.981538 16.7158 59.4112)" fill="#DA6256"/>
<rect width="5.7711" height="8.18417" transform="matrix(0.982098 0.188372 -0.191265 0.981538 16.8137 58.9091)" fill="#C4C4C4"/>
<path d="M0.274813 0L0.549627 0.818419H0L0.274813 0Z" transform="matrix(0.981906 -0.189368 0.192275 0.981341 7.13708 59.9355)" fill="#C4C4C4"/>
<path fill-rule="evenodd" clip-rule="evenodd" d="M7.28755 24.5182C14.2716 24.5182 19.9333 19.0296 19.9333 12.2591C19.9333 5.74289 14.6889 0.414093 8.06867 0.0230103C8.34205 0.00775146 8.61755 0 8.89504 0C16.4101 0 22.5022 5.67786 22.5022 12.6818C22.5022 19.6858 16.4101 25.3636 8.89504 25.3636C5.49444 25.3636 2.38525 24.2011 0 22.2791C2.05984 23.6896 4.57388 24.5182 7.28755 24.5182Z" transform="translate(83.0562 13.0909)" fill="#C4C4C4"/>
<path d="M27.8636 14.3182C27.8636 21.6662 21.8575 27.6364 14.4318 27.6364C7.00616 27.6364 1 21.6662 1 14.3182C1 6.97019 7.00616 1 14.4318 1C21.8575 1 27.8636 6.97019 27.8636 14.3182Z" transform="translate(77.5195 11.4546)" stroke="#F3D9D8" stroke-width="2"/>
<path d="M7.98736e-06 0.298492L10.0306 0" transform="matrix(-0.849873 -0.526988 0.533014 -0.846107 93.8539 28.0708)" stroke="#DA6256" stroke-width="2"/>
<path d="M1.78894e-06 0.254318L12.1698 0" transform="matrix(0.559519 -0.828817 0.832885 0.553446 91.3273 28.0865)" stroke="#DA6256" stroke-width="2"/>
<path d="M1.81184 1L73.4217 1L72.7803 2.27272L2.61361 2.27273L1.81184 1Z" transform="translate(31.3378 47.4546)" stroke="#FCF4F4" stroke-width="2"/>
<mask id="path-28-inside-1" fill="white">
<rect width="84.1169" height="52.3636" rx="1"/>
</mask>
<rect width="84.1169" height="52.3636" rx="1" transform="translate(26.5356 44.1818)" stroke="#F3D9D8" stroke-width="4" mask="url(#path-28-inside-1)"/>
<mask id="path-29-inside-2" fill="white">
<rect width="76.6948" height="45.8182" rx="1"/>
</mask>
<rect width="76.6948" height="45.8182" rx="1" transform="translate(30.6592 47.4546)" stroke="#F3D9D8" stroke-width="4" mask="url(#path-29-inside-2)"/>
<path d="M0 4.90909V5.36364C0 6.46821 0.895432 7.36364 2 7.36364H103.558C104.663 7.36364 105.558 6.46821 105.558 5.36364V2C105.558 0.895431 104.663 0 103.558 0H103.084" transform="translate(16.4935 97.3636)" stroke="#FCF4F4" stroke-width="2"/>
<rect x="1" y="1" width="103.558" height="5.36364" rx="1" transform="translate(15.8149 96.5454)" stroke="#F3D9D8" stroke-width="2"/>
<rect x="1" y="1" width="52.4286" height="27.4545" transform="translate(42.0585 56.4546)" stroke="#DA6256" stroke-width="2" stroke-linecap="round" stroke-linejoin="round"/>
<path d="M-3.91691e-07 3.91691e-07L14.2306 3.77548L9.00306 9.00306L3.77548 14.2306L-3.91691e-07 3.91691e-07Z" transform="translate(62.8815 68.7273) scale(1.00394 0.99604) rotate(45)" fill="#F3D9D8"/>
<path d="M0 5.88553L22.286 0L17.2039 23.0894L8.20022 14.0857L0 5.88553Z" transform="translate(62.6754 77.878) scale(1.00394 0.99604) rotate(-45)" fill="#F3D9D8"/>
<ellipse cx="3.2987" cy="3.27273" rx="3.2987" ry="3.27273" transform="translate(51.1299 62.1818)" fill="#F3D9D8"/>
<ellipse cx="0.824675" cy="0.818182" rx="0.824675" ry="0.818182" transform="translate(92.3638 58.9091)" fill="#DA6256"/>
<ellipse cx="0.824675" cy="0.818182" rx="0.824675" ry="0.818182" transform="translate(89.8896 58.9091)" fill="#DA6256"/>
<ellipse cx="0.824675" cy="0.818182" rx="0.824675" ry="0.818182" transform="translate(87.4156 58.9091)" fill="#DA6256"/>
<path fill-rule="evenodd" clip-rule="evenodd" d="M24.6431 12.3215C24.643 5.51652 19.1265 -1.14685e-05 12.3215 0C5.51652 -1.557e-05 -1.557e-05 5.51652 0 12.3215L24.6431 12.3215Z" transform="translate(25.2405 13.9091) scale(1.00394 0.99604) rotate(45)" fill="#F3D9D8"/>
<rect x="0.75" y="0.75" width="35.5745" height="1.77594" transform="matrix(0.93722 0.348739 -0.353606 0.935394 34.7927 19.4743)" stroke="#F3D9D8" stroke-width="1.5"/>
<path d="M10.7537 0.7742L11.0912 2.54223H0.75V0.75169L10.7537 0.7742Z" transform="matrix(-0.502967 0.864305 -0.867728 -0.497038 71.7172 36)" stroke="#F3D9D8" stroke-width="1.5"/>
</svg>
