<svg width="129" height="109" viewBox="0 0 129 109" fill="none" xmlns="http://www.w3.org/2000/svg">
<rect width="3.93534" height="3.93534" rx="0.5" transform="translate(123.42 24.7139) scale(1.00205 0.997949) rotate(45)" fill="#F0CECB"/>
<rect width="8.47759" height="8.47759" rx="0.5" transform="translate(7.99268 6.87271) scale(1.00205 0.997949) rotate(45)" fill="#F0CECB"/>
<path d="M0 0.5C0 0.223858 0.223858 0 0.5 0H4.73087C5.17632 0 5.39941 0.538571 5.08443 0.853553L2.96899 2.96899L0.853554 5.08443C0.538571 5.39941 0 5.17632 0 4.73087V0.5Z" transform="translate(111.097 35.3106) scale(1.00205 0.997949) rotate(45)" fill="#F0CECB"/>
<path d="M0 0.5C0 0.223858 0.223858 0 0.5 0H4.73087C5.17632 0 5.39941 0.538571 5.08443 0.853553L2.96899 2.96899L0.853554 5.08443C0.538571 5.39941 0 5.17632 0 4.73087V0.5Z" transform="translate(42.6697) scale(1.00205 0.997949) rotate(45)" fill="#F0CECB"/>
<ellipse cx="3.45048" cy="3.43636" rx="3.45048" ry="3.43636" transform="translate(52.2642 12.7636)" fill="#F0CECB"/>
<ellipse cx="3.45048" cy="3.43636" rx="3.45048" ry="3.43636" transform="translate(117.33 63.8182)" fill="#F0CECB"/>
<path d="M0 5.89091V6.83636C0 7.94093 0.895432 8.83636 2 8.83636H124.189C125.293 8.83636 126.189 7.94093 126.189 6.83636V2C126.189 0.895431 125.293 0 124.189 0H123.231" transform="translate(1.81128 99.1636)" stroke="#FCF4F4" stroke-width="2"/>
<rect x="1" y="1" width="124.189" height="6.83636" rx="1" transform="translate(1 98.1818)" stroke="#F3D9D8" stroke-width="2"/>
<path d="M5.78183 0C7.61354 0 9.32979 0.70402 10.6262 1.99212C11.9225 3.28021 12.6311 4.99072 12.6258 6.81074C12.6258 8.63077 11.912 10.3413 10.6157 11.6294L0.738064 21.4074C0.601604 21.543 0.417906 21.6108 0.239459 21.6108C0.0610112 21.6108 -0.138306 20.2363 0.23945 19.916L9.61845 10.6333C10.6472 9.61118 11.214 8.25529 11.2087 6.81074C11.2087 5.3662 10.6472 4.01031 9.61845 2.98817C8.58976 1.97126 7.22516 1.40804 5.77658 1.40804C4.32801 1.40804 2.94682 2.15336 1.91812 3.17549L0.846657 4.15629C0.568489 4.43269 0.278168 4.06582 0 3.78943L0.255205 2.67006L0.932256 1.99733C2.22863 0.709235 3.95012 0 5.78183 0Z" transform="matrix(0.923456 0.383705 -0.367493 0.930026 88.6722 28.5256)" fill="#C4C4C4"/>
<path d="M24.6722 2.20622C23.2668 0.790801 21.4061 0.0171914 19.4203 0.0171914C17.4345 0.0171914 15.5681 0.796532 14.1627 2.21195L13.4286 2.95118L12.6832 2.20049C11.2778 0.785071 9.40574 -3.14783e-08 7.4199 -3.14783e-08C5.43975 -3.14783e-08 3.57341 0.77934 2.17364 2.18903C0.768193 3.60445 -0.00565893 5.48403 3.11573e-05 7.48396C3.11573e-05 9.48388 0.779573 11.3577 2.18502 12.7732L12.871 23.5349C13.0189 23.6839 13.2181 23.7642 13.4116 23.7642C13.605 23.7642 13.8042 23.6897 13.9521 23.5407L24.6609 12.7961C26.0663 11.3807 26.8402 9.50108 26.8402 7.50115C26.8459 5.50123 26.0777 3.62164 24.6722 2.20622ZM23.5797 11.7016L13.4116 21.9018L3.26614 11.6844C2.15088 10.5612 1.53635 9.07129 1.53635 7.48396C1.53635 5.89663 2.14519 4.40671 3.26045 3.28928C4.37002 2.17184 5.84944 1.55295 7.4199 1.55295C8.99606 1.55295 10.4812 2.17184 11.5964 3.29501L12.8824 4.59009C13.184 4.8938 13.6676 4.8938 13.9692 4.59009L15.2438 3.30647C16.359 2.1833 17.8441 1.56441 19.4146 1.56441C20.9851 1.56441 22.4645 2.1833 23.5797 3.30074C24.695 4.4239 25.3038 5.91382 25.3038 7.50115C25.3095 9.08848 24.695 10.5784 23.5797 11.7016Z" transform="matrix(0.923456 0.383705 -0.367493 0.930026 76.7711 22.5818)" fill="#F3D9D8"/>
<path d="M4.08395 0C5.37777 0 6.59003 0.497739 7.50571 1.40842C8.42139 2.3191 8.92186 3.52842 8.91815 4.81517C8.91815 6.10192 8.41397 7.31124 7.49829 8.22192L0.521326 15.135C0.424938 15.2308 0.295185 15.2788 0.16914 15.2788C0.0430948 15.2788 -0.0976917 14.307 0.169134 14.0805L6.79392 7.51771C7.52054 6.79507 7.92091 5.83646 7.91721 4.81517C7.91721 3.79388 7.52054 2.83527 6.79392 2.11263C6.06731 1.39367 5.10344 0.995479 4.08025 0.995479C3.05706 0.995479 2.08146 1.52242 1.35485 2.24506L0.59803 2.93848C0.401548 3.13389 0.196482 2.87452 0 2.67911L0.180262 1.88772L0.658492 1.41211C1.57417 0.501426 2.79014 0 4.08395 0Z" transform="matrix(0.797319 -0.603558 0.625923 0.779885 68.024 70.1185)" fill="#C4C4C4"/>
<path d="M17.4271 1.55979C16.4343 0.559093 15.1201 0.0121542 13.7174 0.0121542C12.3147 0.0121542 10.9964 0.563145 10.0037 1.56384L9.48522 2.08647L8.95871 1.55574C7.96598 0.555042 6.64368 -2.2255e-08 5.24099 -2.2255e-08C3.84233 -2.2255e-08 2.52405 0.55099 1.53534 1.54763C0.542607 2.54833 -0.00399714 3.87719 2.20077e-05 5.29113C2.20077e-05 6.70507 0.550645 8.02987 1.54338 9.03057L9.09134 16.6391C9.19584 16.7444 9.33651 16.8012 9.47316 16.8012C9.60981 16.8012 9.75048 16.7485 9.85498 16.6432L17.419 9.04678C18.4117 8.04608 18.9583 6.71722 18.9583 5.30328C18.9624 3.88934 18.4198 2.56048 17.4271 1.55979ZM16.6554 8.27296L9.47316 15.4845L2.30701 8.26081C1.51926 7.46673 1.08519 6.41337 1.08519 5.29113C1.08519 4.16889 1.51524 3.11553 2.30299 2.3255C3.08673 1.53548 4.13171 1.09793 5.24099 1.09793C6.3543 1.09793 7.4033 1.53548 8.19105 2.32956L9.09938 3.24517C9.31239 3.4599 9.65402 3.4599 9.86703 3.24517L10.7673 2.33766C11.5551 1.54358 12.6041 1.10603 13.7134 1.10603C14.8226 1.10603 15.8676 1.54358 16.6554 2.33361C17.4431 3.12768 17.8732 4.18104 17.8732 5.30328C17.8772 6.42552 17.4431 7.47888 16.6554 8.27296Z" transform="matrix(0.797319 -0.603558 0.625923 0.779885 60.1511 75.2607)" fill="#F3D9D8"/>
<path d="M4.92839 -6.36299e-07C2.20793 0.00302992 0.00314704 2.16879 7.53237e-08 4.84102V5.09582H2.85325C5.5737 5.09279 7.77855 2.92704 7.78164 0.254809V-6.36299e-07H4.92839Z" transform="matrix(0.979365 -0.202099 0.203693 0.979035 25.2135 54.1236)" fill="#F3D9D8"/>
<path d="M9.33803 2.69726L6.49256 5.49228C6.1367 5.84389 5.82231 6.23319 5.55457 6.65359V4.29132e-07H4.517V7.67277C4.24933 7.25237 3.93494 6.86306 3.57902 6.51146L0.733551 3.71643L2.18439e-07 4.43698L2.84547 7.23201C3.91933 8.28125 4.52114 9.70858 4.517 11.196V17.3258H5.55457V10.1769C5.55044 8.6894 6.15274 7.26207 7.22611 6.21337L10.0716 3.41835L9.33803 2.69726Z" transform="matrix(0.979365 -0.202099 0.203693 0.979035 19.0305 47.8549)" fill="#754C24"/>
<path d="M6.54089 1.1182C5.05978 -0.35756 2.6407 -0.374895 1.13836 1.07996C-0.363975 2.53481 -0.381684 4.91101 1.09942 6.38671C1.11238 6.39944 1.12534 6.41216 1.13836 6.42495L3.65081 8.89286L9.05334 3.58611L6.54089 1.1182Z" transform="matrix(0.979365 -0.202099 0.203693 0.979035 7.92383 43.8837)" fill="#F1BBC5"/>
<path d="M5.19545 2.90818L2.23478 5.54912e-08L1.868 0.360273C-0.622667 2.81236 -0.622667 6.78203 1.868 9.23411L3.27235 10.6136L5.19545 8.72456C6.83064 7.11884 6.83064 4.51493 5.19595 2.90873C5.19601 2.90867 5.19545 2.90818 5.19545 2.90818Z" transform="matrix(0.979365 -0.202099 0.203693 0.979035 14.9641 42.7552)" fill="#E88D9E"/>
<path d="M11.4759 2.25605C8.40572 -0.752019 3.43685 -0.752019 0.366775 2.25605L0 2.61633L4.91025 7.43952C6.32965 8.83067 8.62675 8.83067 10.0462 7.43952L13.399 4.14506L11.4759 2.25605Z" transform="matrix(0.979365 -0.202099 0.203693 0.979035 8.14856 48.4697)" fill="#DA6256"/>
<path d="M5.21372 1.70602e-05C4.20002 -0.0030135 3.2273 0.392899 2.51245 1.0992L-3.91683e-07 3.56711L5.40253 8.87386L7.91498 6.40595C9.40701 4.94037 9.40701 2.56423 7.91498 1.0992C7.19858 0.395505 6.22691 1.70602e-05 5.21372 1.70602e-05Z" transform="matrix(0.979365 -0.202099 0.203693 0.979035 28.3958 38.6379)" fill="#F3D9D8"/>
<path d="M6.1989 1.04444C4.78055 -0.348226 2.48135 -0.348226 1.06349 1.04492C0.382881 1.71401 0.000493589 2.62105 -5.27266e-08 3.56683V6.88675H7.26294V3.56689C7.26554 2.62009 6.88216 1.71201 6.1989 1.04444Z" transform="matrix(0.979365 -0.202099 0.203693 0.979035 17.8613 35.3409)" fill="#F1BBC5"/>
<path d="M0.518756 -2.10867e-07H-4.21813e-07V4.07665C0.00209755 6.04566 1.62686 7.64167 3.63147 7.64374H6.22537V5.60544C6.22167 2.5107 3.66874 0.00309096 0.518756 -2.10867e-07Z" transform="matrix(0.979365 -0.202099 0.203693 0.979035 16.9204 41.0059)" fill="#F3D9D8"/>
<path d="M7.78164 6.289e-08C3.48566 0.00460651 0.00462748 3.42386 -4.06748e-07 7.64368V10.1916H4.66898C6.67354 10.1895 8.29836 8.59358 8.30046 6.6245V6.289e-08C8.30039 6.289e-08 7.78164 6.289e-08 7.78164 6.289e-08Z" transform="matrix(0.979365 -0.202099 0.203693 0.979035 19.45 37.8824)" fill="#DA6256"/>
<path d="M4.5539 0.360273L4.18713 -9.24853e-08L1.22645 2.90819C-0.408735 4.5139 -0.408734 7.11781 1.22596 8.72401L1.22645 8.72449L3.14955 10.6135L4.5539 9.23405C7.04457 6.78203 7.04457 2.81236 4.5539 0.360273Z" transform="matrix(0.979365 -0.202099 0.203693 0.979035 24.0582 39.8379)" fill="#F1BBC5"/>
<path d="M13.0322 2.25642C9.96261 -0.752139 4.99269 -0.752139 1.9231 2.25642L6.77913e-07 4.14543L3.35392 7.43989C4.77277 8.83103 7.07098 8.83103 8.48983 7.43989L13.399 2.61669L13.0322 2.25642Z" transform="matrix(0.979365 -0.202099 0.203693 0.979035 25.7594 43.7945)" fill="#DA6256"/>
<path d="M2.85325 4.4393e-07H-1.05453e-07V0.254809C0.00308515 2.92703 2.20793 5.09279 4.92839 5.09583H7.78164V4.84102C7.77855 2.16879 5.5737 0.00309161 2.85325 4.4393e-07Z" transform="matrix(0.979365 -0.202099 0.203693 0.979035 18.6194 58.0859)" fill="#F3D9D8"/>
<path d="M4.92419 -6.36846e-07C2.20605 0.00303252 0.00314435 2.17065 7.52594e-08 4.84517V5.1002H2.85081C5.56895 5.09717 7.77192 2.92955 7.775 0.255028V-6.36846e-07H4.92419Z" transform="matrix(0.86691 0.498464 -0.501538 0.865136 51.009 54.4164)" fill="#F3D9D8"/>
<path d="M9.33006 2.69958L6.48702 5.497C6.13147 5.84891 5.81735 6.23855 5.54984 6.65931V4.295e-07H4.51315V7.67936C4.2457 7.2586 3.93158 6.86896 3.57597 6.51705L0.732925 3.71963L2.18252e-07 4.44079L2.84304 7.23822C3.91598 8.28836 4.51728 9.71692 4.51315 11.2057V17.3406H5.54984V10.1856C5.54571 8.69686 6.1475 7.2683 7.21994 6.21871L10.063 3.42128L9.33006 2.69958Z" transform="matrix(0.86691 0.498464 -0.501538 0.865136 50.5808 45.6396)" fill="#754C24"/>
<path d="M6.53531 1.11916C5.05547 -0.357867 2.63844 -0.375217 1.13739 1.08088C-0.363664 2.53698 -0.381359 4.91522 1.09849 6.39219C1.11143 6.40493 1.12438 6.41767 1.13739 6.43047L3.64769 8.9005L9.04562 3.58919L6.53531 1.11916Z" transform="matrix(0.86691 0.498464 -0.501538 0.865136 44.9419 35.3156)" fill="#F1BBC5"/>
<path d="M5.19102 2.91068L2.23287 5.55388e-08L1.86641 0.360582C-0.622136 2.81477 -0.622136 6.78785 1.86641 9.24204L3.26956 10.6227L5.19102 8.73205C6.82481 7.12496 6.82481 4.5188 5.19151 2.91123C5.19157 2.91117 5.19102 2.91068 5.19102 2.91068Z" transform="matrix(0.86691 0.498464 -0.501538 0.865136 50.9518 39.138)" fill="#E88D9E"/>
<path d="M11.4661 2.25799C8.39855 -0.752664 3.43392 -0.752664 0.366463 2.25799L0 2.61857L4.90606 7.44591C6.32425 8.83825 8.61939 8.83825 10.0376 7.44591L13.3876 4.14862L11.4661 2.25799Z" transform="matrix(0.86691 0.498464 -0.501538 0.865136 42.046 38.8883)" fill="#DA6256"/>
<path d="M5.20927 1.70748e-05C4.19644 -0.00301609 3.22455 0.393236 2.51031 1.10014L-3.91349e-07 3.57017L5.39793 8.88148L7.90823 6.41145C9.39899 4.94462 9.39899 2.56644 7.90823 1.10014C7.19244 0.395845 6.2216 1.70748e-05 5.20927 1.70748e-05Z" transform="matrix(0.86691 0.498464 -0.501538 0.865136 63.73 44.9638)" fill="#F3D9D8"/>
<path d="M6.19361 1.04533C4.77647 -0.348525 2.47923 -0.348525 1.06258 1.04582C0.382554 1.71548 0.000493168 2.62331 -5.26816e-08 3.56989V6.89266H7.25675V3.56996C7.25934 2.62233 6.87629 1.71348 6.19361 1.04533Z" transform="matrix(0.86691 0.498464 -0.501538 0.865136 58.0679 35.5224)" fill="#F1BBC5"/>
<path d="M0.518313 -2.11048e-07H-4.21453e-07V4.08015C0.00209576 6.05085 1.62547 7.64824 3.62837 7.6503H6.22006V5.61026C6.21636 2.51285 3.66561 0.00309361 0.518313 -2.11048e-07Z" transform="matrix(0.86691 0.498464 -0.501538 0.865136 53.5809 39.1283)" fill="#F3D9D8"/>
<path d="M7.775 6.2944e-08C3.48269 0.00461047 0.00462353 3.42681 -4.06401e-07 7.65024V10.2003H4.665C6.66784 10.1983 8.29128 8.60096 8.29338 6.63019V6.2944e-08C8.29331 6.2944e-08 7.775 6.2944e-08 7.775 6.2944e-08Z" transform="matrix(0.86691 0.498464 -0.501538 0.865136 57.556 38.4724)" fill="#DA6256"/>
<path d="M4.55002 0.360582L4.18356 -9.25647e-08L1.22541 2.91068C-0.408386 4.51777 -0.408386 7.12393 1.22491 8.7315L1.22541 8.73199L3.14687 10.6226L4.55002 9.24198C7.03856 6.78785 7.03856 2.81477 4.55002 0.360582Z" transform="matrix(0.86691 0.498464 -0.501538 0.865136 59.6899 42.9857)" fill="#F1BBC5"/>
<path d="M13.0211 2.25836C9.95411 -0.752785 4.98843 -0.752785 1.92146 2.25836L6.77335e-07 4.14899L3.35106 7.44628C4.7687 8.83862 7.06495 8.83862 8.48259 7.44628L13.3875 2.61894L13.0211 2.25836Z" transform="matrix(0.86691 0.498464 -0.501538 0.865136 58.3169 47.0668)" fill="#DA6256"/>
<path d="M2.85081 4.44311e-07H-1.05363e-07V0.255027C0.00308252 2.92955 2.20605 5.09717 4.92419 5.1002H7.775V4.84517C7.77192 2.17065 5.56895 0.00309427 2.85081 4.44311e-07Z" transform="matrix(0.86691 0.498464 -0.501538 0.865136 43.4391 53.0054)" fill="#F3D9D8"/>
<path d="M3.53714 -4.60933e-07C1.58465 0.00219487 0.00225865 1.57107 5.40603e-08 3.50682V3.6914H2.04779C4.00029 3.6892 5.58272 2.12034 5.58494 0.184583V-4.60933e-07H3.53714Z" transform="translate(38.7822 62.5109)" fill="#F3D9D8"/>
<path d="M6.70197 1.95389L4.65975 3.97859C4.40435 4.23329 4.17872 4.51531 3.98656 4.81984V3.10862e-07H3.24189V5.55813C3.04977 5.2536 2.82413 4.97158 2.56869 4.71688L0.526475 2.69217L1.56775e-07 3.21414L2.04222 5.23884C2.81293 5.99891 3.24485 7.03286 3.24189 8.11038V12.5507H3.98656V7.37209C3.98359 6.29458 4.41587 5.26062 5.18623 4.50095L7.22844 2.47624L6.70197 1.95389Z" transform="translate(35.3542 57.1584)" fill="#754C24"/>
<path d="M4.69445 0.810021C3.63144 -0.259015 1.89525 -0.271573 0.817009 0.782317C-0.261227 1.83621 -0.273938 3.55752 0.789065 4.62651C0.798365 4.63573 0.807665 4.64495 0.817009 4.65422L2.62021 6.44196L6.49765 2.59776L4.69445 0.810021Z" transform="translate(28.1306 52.7149)" fill="#F1BBC5"/>
<path d="M3.72881 2.10668L1.60391 4.01977e-08L1.34068 0.260981C-0.446892 2.03726 -0.446892 4.91288 1.34068 6.68917L2.34859 7.68843L3.72881 6.32004C4.9024 5.15687 4.9024 3.2706 3.72917 2.10708C3.72921 2.10703 3.72881 2.10668 3.72881 2.10668Z" transform="translate(33.2424 52.945)" fill="#E88D9E"/>
<path d="M8.23631 1.63428C6.03285 -0.54476 2.46665 -0.54476 0.263237 1.63428L0 1.89526L3.52412 5.38917C4.54284 6.39691 6.19148 6.39691 7.2102 5.38917L9.61658 3.00267L8.23631 1.63428Z" transform="translate(27.618 56.0014)" fill="#DA6256"/>
<path d="M3.74192 1.23583e-05C3.01439 -0.00218297 2.31626 0.284615 1.8032 0.796258L-2.81114e-07 2.584L3.87744 6.4282L5.68064 4.64045C6.75148 3.57879 6.75148 1.85752 5.68064 0.796258C5.16648 0.286503 4.4691 1.23583e-05 3.74192 1.23583e-05Z" transform="translate(43.2822 51.9904)" fill="#F3D9D8"/>
<path d="M4.449 0.756587C3.43103 -0.252254 1.78088 -0.252254 0.763273 0.756938C0.274796 1.24162 0.000354252 1.89868 -3.78422e-08 2.5838V4.98874H5.21267V2.58385C5.21453 1.89798 4.93938 1.24017 4.449 0.756587Z" transform="translate(36.3621 48.1091)" fill="#F1BBC5"/>
<path d="M0.372315 -1.52751e-07H-3.02738e-07V2.95311C0.00150543 4.37946 1.16761 5.53561 2.60633 5.5371H4.46799V4.06057C4.46534 1.81874 2.63308 0.00223908 0.372315 -1.52751e-07Z" transform="translate(34.8729 51.9904)" fill="#F3D9D8"/>
<path d="M5.58494 4.55573e-08C2.50169 0.00333694 0.00332118 2.48024 -2.91926e-07 5.53706V7.38276H3.35096C4.78965 7.38126 5.95579 6.22516 5.9573 4.79877V4.55573e-08C5.95725 4.55573e-08 5.58494 4.55573e-08 5.58494 4.55573e-08Z" transform="translate(37.1067 50.1448)" fill="#DA6256"/>
<path d="M3.26837 0.260981L3.00513 -6.69961e-08L0.880233 2.10668C-0.293352 3.26985 -0.293352 5.15612 0.879879 6.31965L0.880233 6.32L2.26046 7.68839L3.26837 6.68912C5.05594 4.91288 5.05594 2.03726 3.26837 0.260981Z" transform="translate(40.059 52.2067)" fill="#F1BBC5"/>
<path d="M9.3533 1.63454C7.15023 -0.544847 3.58329 -0.544847 1.38022 1.63454L4.86543e-07 3.00293L2.40713 5.38943C3.42545 6.39718 5.07489 6.39718 6.09321 5.38943L9.61653 1.89552L9.3533 1.63454Z" transform="translate(40.676 55.2628)" fill="#DA6256"/>
<path d="M2.0478 3.21581e-07H-7.56845e-08V0.184583C0.00221424 2.12034 1.58465 3.68921 3.53714 3.6914H5.58494V3.50682C5.58272 1.57106 4.00029 0.00223956 2.0478 3.21581e-07Z" transform="translate(33.5697 64.3566)" fill="#F3D9D8"/>
<mask id="path-49-inside-1" fill="white">
<path fill-rule="evenodd" clip-rule="evenodd" d="M0 0C0 10.4915 7.30627 19.1528 16.7594 20.4503V31.5462C12.6456 31.9817 9.48077 33.4829 8.87271 35.3455H29.5756C28.9675 33.4829 25.8026 31.9817 21.6887 31.5462V20.4503C31.1419 19.1528 38.4482 10.4915 38.4482 0H0Z"/>
</mask>
<path fill-rule="evenodd" clip-rule="evenodd" d="M0 0C0 10.4915 7.30627 19.1528 16.7594 20.4503V31.5462C12.6456 31.9817 9.48077 33.4829 8.87271 35.3455H29.5756C28.9675 33.4829 25.8026 31.9817 21.6887 31.5462V20.4503C31.1419 19.1528 38.4482 10.4915 38.4482 0H0Z" transform="translate(18.7454 62.8364)" fill="#DA6256"/>
<path d="M16.7594 20.4503H18.7594V18.7061L17.0314 18.4689L16.7594 20.4503ZM0 0V-2H-2V0H0ZM16.7594 31.5462L16.97 33.5351L18.7594 33.3457V31.5462H16.7594ZM8.87271 35.3455L6.97146 34.7248L6.11591 37.3455H8.87271V35.3455ZM29.5756 35.3455V37.3455H32.3324L31.4768 34.7248L29.5756 35.3455ZM21.6887 31.5462H19.6887V33.3457L21.4782 33.5351L21.6887 31.5462ZM21.6887 20.4503L21.4167 18.4689L19.6887 18.7061V20.4503H21.6887ZM38.4482 0H40.4482V-2H38.4482V0ZM17.0314 18.4689C8.65957 17.3198 2 9.58686 2 0H-2C-2 11.3962 5.95298 20.9858 16.4875 22.4317L17.0314 18.4689ZM18.7594 31.5462V20.4503H14.7594V31.5462H18.7594ZM10.774 35.9662C10.8231 35.8158 11.1564 35.2943 12.3663 34.714C13.494 34.1731 15.0807 33.7351 16.97 33.5351L16.5489 29.5573C14.3243 29.7928 12.2717 30.3231 10.6365 31.1074C9.08355 31.8522 7.53043 33.0126 6.97146 34.7248L10.774 35.9662ZM29.5756 33.3455H8.87271V37.3455H29.5756V33.3455ZM21.4782 33.5351C23.3675 33.7351 24.9542 34.1731 26.082 34.714C27.2919 35.2943 27.6252 35.8158 27.6743 35.9662L31.4768 34.7248C30.9179 33.0126 29.3647 31.8522 27.8117 31.1073C26.1765 30.3231 24.1238 29.7928 21.8992 29.5573L21.4782 33.5351ZM19.6887 20.4503V31.5462H23.6887V20.4503H19.6887ZM36.4482 0C36.4482 9.58686 29.7886 17.3198 21.4167 18.4689L21.9607 22.4317C32.4952 20.9858 40.4482 11.3962 40.4482 0H36.4482ZM0 2H38.4482V-2H0V2Z" transform="translate(18.7454 62.8364)" fill="#DA6256" mask="url(#path-49-inside-1)"/>
<path d="M0.521938 21.7156L0.522144 21.7159C0.546419 21.7484 0.592487 21.7751 0.650034 21.7751H19.067C19.1704 21.7751 19.217 21.7001 19.217 21.6527C19.217 21.4723 19.133 21.3011 18.8892 21.0942C18.6333 20.877 18.2753 20.683 17.8394 20.4499L17.8394 20.4499C17.2658 20.1432 16.7038 19.8272 16.2896 19.4593C15.8636 19.081 15.5373 18.5965 15.55 17.9581L15.5501 17.9521V6.04493V5.72239L15.844 5.58941C16.2951 5.38526 16.6665 4.83949 16.6665 4.10678C16.6665 3.81481 16.5155 3.36654 16.2795 2.87427C16.0536 2.40297 15.7865 1.96491 15.6291 1.71908L15.5501 1.59581V1.44944V1.03747C15.5501 1.0187 15.5446 0.998454 15.5315 0.979133L0.521938 21.7156ZM0.521938 21.7156C0.49884 21.6848 0.494994 21.6501 0.505738 21.6198L0.0345546 21.4528M0.521938 21.7156L0.0345546 21.4528M0.0345546 21.4528L0.505742 21.6198C0.551219 21.4915 0.658455 21.36 0.901041 21.2061C1.15005 21.0481 1.47699 20.9054 1.89888 20.7231L1.89889 20.7231M0.0345546 21.4528L1.89889 20.7231M1.89889 20.7231L1.91936 20.7143C2.38486 20.5131 2.95748 20.2658 3.4235 19.9522C3.88441 19.6422 4.36568 19.1853 4.42602 18.5245L4.42809 18.5018M1.89889 20.7231L4.42809 18.5018M4.42809 18.5018V18.479M4.42809 18.5018V18.479M4.42809 18.479V8.82889V8.54142M4.42809 18.479V8.54142M4.42809 8.54142L4.17966 8.39679M4.42809 8.54142L4.17966 8.39679M4.17966 8.39679C3.77076 8.15873 3.45648 7.63258 3.45648 6.96886C3.45648 6.88124 3.46843 6.77524 3.49858 6.64546L3.55187 6.41603M4.17966 8.39679L3.55187 6.41603M3.55187 6.41603L3.40891 6.22884M3.55187 6.41603L3.40891 6.22884M3.40891 6.22884C3.1215 5.85251 2.95033 5.34395 2.95033 4.78341C2.95033 4.35021 3.1949 3.68498 3.54101 2.99139C3.8744 2.32331 4.2564 1.71601 4.44352 1.42961L4.45151 1.41738M3.40891 6.22884L4.45151 1.41738M4.45151 1.41738L4.45877 1.40471M4.45151 1.41738L4.45877 1.40471M4.45877 1.40471C4.77826 0.847079 5.12714 0.783551 5.32066 0.783551C5.47441 0.783551 5.64554 0.828268 5.83251 0.938132L5.8325 0.938147M4.45877 1.40471L5.8325 0.938147M5.8325 0.938147L5.83611 0.940225M5.8325 0.938147L5.83611 0.940225M5.83611 0.940225L5.83652 0.940515L5.83753 0.941163M5.83611 0.940225L5.83753 0.941163M5.83753 0.941163C6.35846 1.27367 7.03902 1.4049 7.84983 1.40483L5.83753 0.941163ZM11.4747 0.903911L11.4746 0.903915L11.443 0.910261C10.2633 1.1472 8.98049 1.40482 7.84987 1.40483L11.4747 0.903911ZM11.4747 0.903911C12.5519 0.687541 13.4969 0.5 14.2275 0.5M11.4747 0.903911L14.2275 0.5M14.2275 0.5C14.3784 0.5 14.6326 0.501363 14.8966 0.570827M14.2275 0.5L14.8966 0.570827M14.8966 0.570827C15.1587 0.639775 15.3854 0.763985 15.5314 0.979059L14.8966 0.570827ZM15.5501 17.9575C15.5501 17.9575 15.5501 17.9569 15.5501 17.9561L15.5501 17.9575Z" transform="translate(95.6416 75.9066)" stroke="#DA6256"/>
<path d="M1.47889 8.99966L1.47886 8.99963C0.85432 8.41831 0.5 7.52657 0.5 6.26628C0.5 5.06647 1.2301 3.69161 2.05426 2.54233C2.86259 1.41513 3.68937 0.602322 3.74899 0.544234L3.74921 0.544019C3.77543 0.518437 3.81627 0.5 3.86356 0.5C3.91089 0.5 3.95173 0.518368 3.97827 0.544225L3.97828 0.544232C4.03785 0.602283 4.86462 1.41509 5.67294 2.5423C6.49709 3.69159 7.22719 5.06647 7.22719 6.26628C7.22719 7.52656 6.87281 8.41837 6.24834 8.99963C5.69733 9.51251 4.88718 9.8103 3.86356 9.8103C2.83998 9.8103 2.02973 9.51249 1.47889 8.99966Z" transform="translate(101.355 65.7818)" stroke="#DA6256"/>
<path d="M8.79633 10.7456L8.7963 10.7456C8.51202 10.589 8.20539 10.4132 7.97328 10.2008C7.72872 9.977 7.51707 9.66631 7.52505 9.24706L7.52505 9.24733L7.52508 9.24733M8.79633 10.7456L8.02497 9.2563L7.68123 9.25013M8.79633 10.7456C8.96168 10.8367 9.08804 10.9078 9.18456 10.9751H0.877757C0.930372 10.9509 0.988678 10.9248 1.05362 10.8959L1.05364 10.8959L1.07166 10.8879C1.29944 10.7865 1.6043 10.6508 1.85704 10.4756C2.10715 10.3023 2.42242 10.0113 2.4621 9.56364L2.46405 9.54161V9.5195V4.54822V4.26508L2.22124 4.11944C2.10499 4.04971 1.97824 3.86595 1.97824 3.59002C1.97824 3.56544 1.98151 3.5284 1.99353 3.47511L2.04394 3.25152L1.90745 3.06739C1.79777 2.91943 1.72516 2.70829 1.72516 2.46418C1.72516 2.30017 1.82384 2.00109 1.99681 1.64396C2.15786 1.31144 2.34348 1.00725 2.43473 0.863347L2.44244 0.851181L2.44944 0.838591C2.51563 0.719567 2.5724 0.678117 2.59698 0.663814C2.622 0.649263 2.64258 0.646072 2.66033 0.646072C2.68296 0.646072 2.72265 0.652219 2.78193 0.687702M8.79633 10.7456L2.78193 0.687702M7.52508 9.24733V9.25013H7.68123M7.52508 9.24733V9.24659L7.68123 9.25013M7.52508 9.24733L7.68123 9.25013M7.52508 9.24565L7.52506 9.24659L7.52508 9.24565ZM7.52508 9.24565V3.11406V2.79551L7.81377 2.6609C7.93317 2.60523 8.08326 2.42295 8.08326 2.11561C8.08326 2.02097 8.02855 1.83101 7.91187 1.58028C7.80461 1.34976 7.67662 1.13323 7.60041 1.01062L7.52508 0.889404V0.746683V0.5994C7.49386 0.570238 7.44842 0.545797 7.3811 0.527546C7.28478 0.501431 7.18759 0.5 7.11373 0.5C6.78073 0.5 6.33757 0.589308 5.78942 0.702744L5.78892 0.702848L5.7889 0.702853L5.75979 0.708877C5.17985 0.828902 4.51686 0.966118 3.92496 0.966125L7.52508 9.24565ZM0.0608489 11.3412C-0.00017982 11.2572 -0.0164397 11.1493 0.0172363 11.0514C0.115337 10.7663 0.439667 10.6219 0.850283 10.4391L0.0608489 11.3412ZM0.0608489 11.3412C0.121841 11.4253 0.220232 11.4751 0.325018 11.4751H9.53352M0.0608489 11.3412L9.53352 11.4751M2.78193 0.687702C3.10055 0.895899 3.49712 0.966159 3.92492 0.966125L2.78193 0.687702ZM9.53352 11.4751C9.71296 11.4751 9.8585 11.3315 9.8585 11.1544M9.53352 11.4751L9.8585 11.1544M9.8585 11.1544C9.8585 10.7599 9.45977 10.5403 9.03759 10.3077L9.8585 11.1544ZM3.92492 0.466125C3.54144 0.46616 3.25631 0.401251 3.05328 0.267727C3.04988 0.265481 3.04645 0.263307 3.04291 0.261204C2.91673 0.184817 2.78792 0.146072 2.66033 0.146072L3.92492 0.466125ZM9.3585 11.1544C9.3585 11.1525 9.35853 11.1506 9.35858 11.1487C9.35897 11.1519 9.35864 11.1536 9.35853 11.1542C9.35851 11.1543 9.3585 11.1544 9.3585 11.1544Z" transform="translate(84.7972 86.7068)" stroke="#DA6256"/>
<path d="M0.915212 4.46387L0.915176 4.46384C0.665378 4.22428 0.5 3.83631 0.5 3.22808C0.5 2.68687 0.82704 2.03042 1.23435 1.44521C1.50412 1.05763 1.77844 0.744093 1.93181 0.577676C2.08519 0.744091 2.35949 1.05762 2.62925 1.4452C3.03656 2.03041 3.3636 2.68687 3.3636 3.22808C3.3636 3.8363 3.19819 4.22431 2.94842 4.46384C2.72888 4.67438 2.39187 4.81137 1.93178 4.81137C1.4717 4.81137 1.13466 4.67437 0.915212 4.46387Z" transform="translate(87.6538 81.4909)" stroke="#DA6256"/>
</svg>
