<svg width="111" height="94" viewBox="0 0 111 94" fill="none" xmlns="http://www.w3.org/2000/svg">
<path d="M42.6689 8.49474C46.3829 6.75502 50.232 4.96704 55.5088 4.96704C60.7855 4.96704 64.64 6.75503 68.3486 8.49116C71.966 10.179 75.708 11.9259 80.6564 11.9259H84.056V10.6886H80.6564C75.9732 10.6886 72.5174 9.07941 68.8561 7.36652C65.0228 5.57853 61.0577 3.72975 55.5105 3.72975C49.9633 3.72975 45.9966 5.57853 42.165 7.36652C38.5002 9.07941 35.0426 10.6886 30.3612 10.6886H26.944V11.9313H30.3612C35.306 11.9295 39.0516 10.1826 42.6689 8.49474ZM53.312 37.7641C53.312 37.4692 53.2261 37.1809 53.0652 36.9357C52.9043 36.6905 52.6756 36.4993 52.408 36.3865C52.1404 36.2736 51.8459 36.2441 51.5618 36.3016C51.2777 36.3591 51.0168 36.5012 50.812 36.7097C50.6072 36.9182 50.4677 37.184 50.4112 37.4732C50.3547 37.7625 50.3837 38.0623 50.4945 38.3348C50.6054 38.6073 50.7931 38.8402 51.0339 39.004C51.2747 39.1679 51.5579 39.2553 51.8475 39.2553C52.2359 39.2553 52.6084 39.0982 52.8831 38.8186C53.1577 38.5389 53.312 38.1596 53.312 37.7641ZM18.1921 91.4807H16.9717V92.4516H12.9153V89.6856H16.0761V88.434H12.9153V85.237H16.9805V86.2079H18.2009V83.9962H10.7607V85.2478H11.6949V92.4623H10.7607V93.7139H18.2009L18.1921 91.4807ZM41.143 5.1065C45.0255 3.29526 49.426 1.24265 55.5088 1.24265C61.5915 1.24265 65.9903 3.29526 69.8746 5.1065C73.434 6.76754 76.507 8.20151 80.6564 8.20151H84.056V6.94991H80.6564C76.7721 6.94991 73.808 5.5678 70.3821 3.96755C66.3872 2.10625 61.8567 0 55.5088 0C49.1609 0 44.6304 2.10625 40.6337 3.97649C37.206 5.57674 34.2437 6.95886 30.3612 6.95886H26.944V8.21045H30.3612C34.5106 8.20151 37.5888 6.76754 41.143 5.1065ZM5.80532 85.237H6.73951V88.9328L4.21263 89.2904C3.9553 89.3393 3.69043 89.3285 3.43778 89.2588C3.18512 89.189 2.95118 89.0621 2.75337 88.8875C2.55557 88.7129 2.399 88.4951 2.29533 88.2503C2.19166 88.0056 2.14356 87.7401 2.15461 87.4738V85.237H3.09055V83.9855H0V85.237H0.935946V87.4828C0.927827 87.9267 1.01472 88.3672 1.1906 88.7735C1.36648 89.1798 1.62712 89.5423 1.95442 89.8357C2.49712 90.3128 3.19193 90.5721 3.90885 90.5653C4.06871 90.5656 4.22838 90.5536 4.38648 90.5295L6.73951 90.1862V92.4516H5.80532V93.7032H8.89412V92.4516H7.95993V85.237H8.89412V83.9855H5.80532V85.237ZM69.7534 59.5365C73.0617 56.2984 74.5367 52.5633 74.5367 47.4193V39.0068H62.5837L62.4485 39.4395C62.1863 40.2647 61.7356 41.0148 61.1333 41.628C60.531 42.2413 59.7943 42.7003 58.9839 42.9672L58.5589 43.1049V66.4113L59.4141 66.0287C64.006 63.9707 67.3863 61.8537 69.7534 59.5365ZM59.7794 43.9953C60.6112 43.6579 61.367 43.1519 62.0009 42.5079C62.6349 41.864 63.1336 41.0956 63.4669 40.2494H73.3251V47.4193C73.3251 52.195 71.966 55.6565 68.9176 58.6407C66.8104 60.7112 63.8111 62.6315 59.7864 64.5017L59.7794 43.9953ZM81.8592 47.4193V14.4148H80.6564C75.1759 14.4148 71.009 12.4694 67.3319 10.7548C63.6952 9.05795 60.2605 7.45592 55.5088 7.45592C50.7571 7.45592 47.3223 9.06511 43.6857 10.7548C40.7356 12.1315 37.3922 13.6906 33.3253 14.2217L32.7985 14.2914V47.4193C32.7985 53.5753 34.6756 58.2795 38.7057 62.2238C42.2176 65.6657 47.4856 68.6302 55.2858 71.5553L55.4965 71.634L55.7072 71.5553C63.5021 68.6302 68.7701 65.6657 72.2873 62.2238C76.3261 58.2795 78.1945 53.5753 78.1945 47.4193V17.8406H76.9653V47.4193C76.9653 53.2141 75.2093 57.6341 71.4321 61.328C68.166 64.525 63.2826 67.3142 56.1058 70.0731V11.5701H54.8854V70.0803C47.6999 67.3178 42.8112 64.5375 39.5433 61.328C35.7679 57.6341 34.0101 53.2141 34.0101 47.4193V15.3785C38.0085 14.7634 41.2799 13.2329 44.1809 11.8848C47.6928 10.2452 51.0117 8.69857 55.4965 8.69857C59.9813 8.69857 63.2984 10.2452 66.8104 11.8848C70.5963 13.6513 74.888 15.6521 80.6265 15.6556V47.4193C80.6265 54.2029 78.4491 59.6312 73.9696 64.0154C70.0115 67.9043 64.3116 71.0654 55.5 74.2767C46.6884 71.0672 40.9885 67.9025 37.0181 64.0154C32.5386 59.6312 30.3612 54.2029 30.3612 47.4193V14.4148H29.1408V47.4193C29.1408 54.5587 31.4411 60.2803 36.1647 64.9112C40.265 68.9252 46.1002 72.174 55.0821 75.446L55.5 75.5926L55.9109 75.4424C64.8928 72.1704 70.728 68.9216 74.8282 64.9076C79.5571 60.2803 81.8592 54.5587 81.8592 47.4193ZM74.5367 17.4347L74.0732 17.3185C70.9124 16.5246 68.1994 15.2587 65.8059 14.143C63.6232 13.1256 61.5617 12.1637 59.3088 11.6291L58.5589 11.4503V32.4234L58.9839 32.5611C59.7943 32.828 60.531 33.287 61.1333 33.9002C61.7356 34.5135 62.1863 35.2636 62.4485 36.0888L62.5837 36.5215H74.5367V17.4347ZM73.3163 35.2788H63.4582C63.1245 34.433 62.6257 33.665 61.9918 33.0214C61.3579 32.3778 60.6022 31.8721 59.7706 31.5348V13.0344C61.6144 13.5583 63.3335 14.3611 65.2914 15.2748C67.6146 16.3583 70.2328 17.5795 73.3075 18.4038L73.3163 35.2788ZM48.5691 36.0906C48.831 35.2652 49.2816 34.515 49.884 33.9017C50.4863 33.2884 51.2231 32.8295 52.0337 32.5629L52.4569 32.4252V11.4521L51.7088 11.6309C49.4559 12.1673 47.3943 13.1274 45.2116 14.1448C42.8164 15.2623 40.1017 16.53 36.9286 17.3238L36.465 17.4401V36.5233H48.4356L48.5691 36.0906ZM37.6819 35.2788V18.4091C40.7654 17.5831 43.3889 16.3601 45.7174 15.273C47.6718 14.3611 49.3926 13.5583 51.2364 13.0344V31.5348C50.4048 31.8721 49.6491 32.3778 49.0153 33.0214C48.3814 33.665 47.8825 34.433 47.5489 35.2788H37.6819ZM28.6789 92.4516V93.7032H33.6923C34.3451 93.7034 34.9794 93.4827 35.4957 93.0758C36.0119 92.6689 36.3807 92.0989 36.5441 91.4554C36.7075 90.8119 36.6563 90.1313 36.3985 89.5206C36.1407 88.9099 35.691 88.4038 35.1199 88.0817C35.4247 87.7234 35.6217 87.2832 35.6874 86.8139C35.7531 86.3446 35.6848 85.866 35.4905 85.4352C35.2963 85.0044 34.9844 84.6396 34.592 84.3844C34.1996 84.1292 33.7434 83.9945 33.2779 83.9962H28.6789V85.2388H29.6131V92.4552L28.6789 92.4516ZM30.8318 85.2353H33.2779C33.5905 85.2474 33.8864 85.3824 34.1035 85.6119C34.3204 85.8415 34.4417 86.1477 34.4417 86.4663C34.4417 86.7849 34.3204 87.0911 34.1035 87.3206C33.8864 87.5502 33.5905 87.6852 33.2779 87.6973H30.8318V85.2353ZM30.8318 88.94H33.6923C34.1496 88.94 34.5882 89.125 34.9116 89.4542C35.235 89.7835 35.4167 90.2301 35.4167 90.6958C35.4167 91.1614 35.235 91.6081 34.9116 91.9373C34.5882 92.2666 34.1496 92.4516 33.6923 92.4516H30.8318V88.94ZM60.6187 37.7641C60.6187 37.4692 60.5328 37.1809 60.3719 36.9357C60.211 36.6905 59.9823 36.4993 59.7147 36.3865C59.4471 36.2736 59.1526 36.2441 58.8685 36.3016C58.5844 36.3591 58.3235 36.5012 58.1187 36.7097C57.9139 36.9182 57.7744 37.184 57.7179 37.4732C57.6614 37.7625 57.6904 38.0623 57.8012 38.3348C57.9121 38.6073 58.0998 38.8402 58.3406 39.004C58.5814 39.1679 58.8646 39.2553 59.1542 39.2553C59.5425 39.2548 59.9147 39.0976 60.1893 38.818C60.4638 38.5385 60.6183 38.1595 60.6187 37.7641ZM36.4632 47.4193C36.4632 52.5615 37.9383 56.2984 41.2466 59.5365C43.6154 61.8609 47.0027 63.9814 51.607 66.0376L52.4621 66.4185V43.1049L52.0389 42.9672C51.2285 42.7003 50.4918 42.2413 49.8895 41.628C49.2872 41.0148 48.8365 40.2647 48.5744 39.4395L48.4391 39.0068H36.4632V47.4193ZM37.6924 40.2494H47.5682C47.9015 41.0956 48.4003 41.864 49.0342 42.5079C49.6681 43.1519 50.4239 43.6579 51.2558 43.9953V64.5071C47.217 62.6351 44.2318 60.7112 42.1088 58.6389C39.0604 55.6548 37.7012 52.1932 37.7012 47.4175L37.6924 40.2494ZM82.2245 85.3425V84.0999H79.1269V85.3425H80.0611V92.4516H78.0891V88.0567H76.8687V92.4516H74.895V85.3425H75.8292V84.0999H72.7404V85.3425H73.6746V92.4516H72.7404V93.7032H82.2227V92.4516H81.2886V85.3425H82.2245ZM57.7371 85.237V83.9855H54.6396V85.237H55.5738V88.223H51.1961V85.237H52.1302V83.9855H49.0414V85.237H49.9756V92.4516H49.0414V93.7032H52.1302V92.4516H51.1961V89.4656H55.5738V92.4516H54.6396V93.7032H57.7284V92.4516H56.7942V85.237H57.7371ZM63.9569 83.9962H61.8883V85.2478H62.6627L60.1868 92.4623H59.077V93.7139H62.1728V92.4623H61.4879L62.0305 90.8817H65.0316L65.5741 92.4623H64.8893V93.7139H67.9676V92.4623H66.856L63.9569 83.9962ZM62.4502 89.6319L63.5249 86.4994L64.5978 89.6301L62.4502 89.6319ZM89.5294 93.6978H92.6182V92.4462H91.5067L88.604 83.9962H86.5355V85.2478H87.3116L84.8357 92.4623H83.7241V93.7139H86.8129V92.4623H86.1281L86.6707 90.8817H89.6717L90.2143 92.4623H89.5294V93.6978ZM87.0956 89.6283L88.1703 86.4994L89.245 89.6301L87.0956 89.6283ZM109.892 92.4516L106.989 83.9962H104.921V85.2478H105.695L103.219 92.4623H102.109V93.7139H105.195V92.4623H104.51L105.052 90.8817H108.052L108.594 92.4623H107.911V93.7139H111V92.4623L109.892 92.4516ZM105.481 89.6283L106.556 86.4994L107.63 89.6301L105.481 89.6283ZM99.068 83.9962H95.6579C94.8769 83.9962 94.1278 84.3121 93.5756 84.8744C93.0233 85.4367 92.7131 86.1994 92.7131 86.9946C92.7131 87.7899 93.0233 88.5526 93.5756 89.1149C94.1278 89.6772 94.8769 89.9931 95.6579 89.9931H96.7536V92.4534H95.8194V93.705H98.9082V92.4534H97.974V89.9913H99.068C99.849 89.9913 100.598 89.6754 101.15 89.1131C101.703 88.5508 102.013 87.7881 102.013 86.9929C102.013 86.1976 101.703 85.4349 101.15 84.8726C100.598 84.3103 99.849 83.9944 99.068 83.9944V83.9962ZM96.7536 88.7505H95.6579C95.4314 88.7505 95.2072 88.705 94.998 88.6168C94.7888 88.5285 94.5987 88.3992 94.4385 88.2362C94.2784 88.0731 94.1514 87.8796 94.0647 87.6666C93.9781 87.4535 93.9335 87.2252 93.9335 86.9946C93.9335 86.7641 93.9781 86.5357 94.0647 86.3227C94.1514 86.1097 94.2784 85.9161 94.4385 85.7531C94.5987 85.5901 94.7888 85.4607 94.998 85.3725C95.2072 85.2843 95.4314 85.2388 95.6579 85.2388H96.7536V88.7505ZM99.068 88.7505H97.974V85.237H99.068C99.5253 85.237 99.964 85.422 100.287 85.7513C100.611 86.0806 100.792 86.5272 100.792 86.9929C100.792 87.4585 100.611 87.9051 100.287 88.2344C99.964 88.5637 99.5253 88.7487 99.068 88.7487V88.7505ZM24.4048 83.9962H19.8744V85.2478H20.8085V92.4623H19.8744V93.7139H22.9825V92.4623H22.029V90.5545H24.4048C24.8342 90.5647 25.2612 90.4874 25.6608 90.3272C26.0604 90.1669 26.4246 89.927 26.7318 89.6214C27.039 89.3158 27.2831 88.9507 27.4498 88.5477C27.6164 88.1447 27.7023 87.7118 27.7023 87.2745C27.7023 86.8372 27.6164 86.4043 27.4498 86.0012C27.2831 85.5982 27.039 85.2331 26.7318 84.9276C26.4246 84.622 26.0604 84.382 25.6608 84.2217C25.2612 84.0615 24.8342 83.9842 24.4048 83.9944V83.9962ZM24.4048 89.3137H22.029V85.237H24.4048C24.6726 85.229 24.9392 85.2757 25.1889 85.3745C25.4386 85.4732 25.6663 85.622 25.8585 85.812C26.0507 86.002 26.2035 86.2293 26.3078 86.4805C26.4122 86.7317 26.4659 87.0017 26.4659 87.2745C26.4659 87.5472 26.4122 87.8172 26.3078 88.0684C26.2035 88.3196 26.0507 88.547 25.8585 88.737C25.6663 88.9269 25.4386 89.0757 25.1889 89.1745C24.9392 89.2732 24.6726 89.3199 24.4048 89.3119V89.3137ZM42.9078 83.6869C41.9061 83.6869 40.927 83.9893 40.0942 84.5559C39.2614 85.1225 38.6123 85.9279 38.229 86.8701C37.8457 87.8123 37.7454 88.8491 37.9408 89.8494C38.1362 90.8497 38.6185 91.7685 39.3268 92.4897C40.035 93.2108 40.9374 93.7019 41.9198 93.9009C42.9021 94.0999 43.9204 93.9978 44.8458 93.6075C45.7712 93.2172 46.5621 92.5563 47.1186 91.7083C47.675 90.8603 47.972 89.8633 47.972 88.8434C47.9702 87.4764 47.436 86.1659 46.4867 85.1993C45.5374 84.2326 44.2503 83.6888 42.9078 83.6869ZM42.9078 92.7573C42.1475 92.7573 41.4043 92.5278 40.7722 92.0977C40.1401 91.6677 39.6474 91.0564 39.3565 90.3412C39.0655 89.626 38.9894 88.8391 39.1377 88.0799C39.2861 87.3206 39.6521 86.6232 40.1897 86.0759C40.7273 85.5285 41.4122 85.1557 42.1579 85.0047C42.9035 84.8537 43.6764 84.9312 44.3787 85.2274C45.0811 85.5237 45.6814 86.0253 46.1038 86.669C46.5262 87.3126 46.7516 88.0693 46.7516 88.8434C46.7502 89.881 46.3448 90.8757 45.6242 91.6094C44.9037 92.3431 43.9268 92.7559 42.9078 92.7573Z" fill="white"/>
</svg>
